<?xml version="1.0" standalone="no"?>
<!DOCTYPE svg PUBLIC "-//W3C//DTD SVG 20010904//EN"
 "http://www.w3.org/TR/2001/REC-SVG-20010904/DTD/svg10.dtd">
<svg version="1.0" xmlns="http://www.w3.org/2000/svg"
 width="500.000000pt" height="500.000000pt" viewBox="0 0 500.000000 500.000000"
 preserveAspectRatio="xMidYMid meet">

<g transform="translate(0.000000,500.000000) scale(0.100000,-0.100000)"
fill="#000000" stroke="none">
<path d="M4025 4663 c-78 -17 -181 -86 -231 -155 -69 -94 -95 -142 -184 -333
-46 -99 -104 -174 -141 -182 -16 -3 -32 -10 -35 -14 -3 -5 -20 -9 -38 -9 -19
0 -50 -7 -70 -15 -47 -20 -155 -92 -226 -150 -56 -47 -254 -157 -301 -168 -14
-4 -57 -25 -95 -47 -38 -22 -94 -50 -124 -61 -30 -11 -66 -28 -80 -37 -68 -45
-248 -102 -323 -102 -21 0 -46 -4 -56 -10 -13 -6 -33 -4 -68 10 -27 10 -83 22
-123 26 -44 4 -114 21 -170 41 -52 19 -113 38 -135 43 -22 5 -74 17 -115 27
-56 13 -116 18 -235 18 -191 -1 -230 -11 -256 -71 -16 -35 -16 -40 2 -92 10
-30 37 -79 59 -107 42 -55 90 -145 109 -207 7 -20 19 -42 28 -50 9 -7 27 -31
41 -53 25 -40 64 -89 133 -168 20 -23 42 -59 48 -79 7 -21 28 -56 47 -79 19
-22 34 -47 34 -55 0 -34 45 -97 128 -181 95 -94 91 -85 111 -223 4 -30 20 -91
36 -135 20 -58 28 -103 30 -165 3 -91 12 -135 42 -215 17 -44 31 -68 93 -160
9 -13 38 -40 65 -62 28 -22 64 -56 80 -77 112 -139 208 -218 325 -267 30 -12
60 -26 65 -30 6 -5 31 -11 55 -15 66 -11 186 -86 326 -207 46 -40 108 -81 149
-100 39 -18 86 -42 105 -53 126 -76 236 -114 283 -96 16 6 34 9 39 6 15 -9
150 -25 248 -29 81 -3 106 0 167 21 39 13 82 24 96 24 13 0 49 14 80 30 69 37
87 37 118 4 42 -46 195 -171 230 -190 19 -9 69 -43 112 -75 l77 -59 0 1756 c0
1687 -1 1756 -18 1792 -11 20 -26 60 -35 87 -69 221 -96 285 -141 335 -23 25
-41 53 -74 112 -108 190 -170 259 -233 257 -19 -1 -43 -3 -54 -6z m126 -2233
c66 -13 95 -39 114 -104 31 -104 1 -198 -93 -289 -33 -32 -49 -40 -103 -48
-83 -14 -91 -13 -150 6 -54 18 -123 87 -134 134 -6 28 12 77 52 142 42 67 134
93 119 34 -8 -30 4 -53 51 -106 42 -46 60 -49 74 -12 14 37 4 73 -37 130 -19
26 -34 56 -34 65 0 10 16 26 38 37 45 24 37 23 103 11z m-1471 -543 c0 -39 8
-68 28 -107 29 -58 50 -77 76 -67 34 13 15 87 -46 171 -15 21 -28 43 -28 48 0
4 28 8 62 8 101 0 197 -59 242 -148 17 -32 16 -34 -21 -110 -35 -71 -42 -79
-93 -104 -98 -47 -125 -53 -183 -38 -116 29 -187 84 -225 177 -26 62 -28 103
-5 150 20 44 78 72 146 73 l47 0 0 -53z"/>
</g>
</svg>
