<?xml version="1.0" standalone="no"?>
<!DOCTYPE svg PUBLIC "-//W3C//DTD SVG 20010904//EN"
 "http://www.w3.org/TR/2001/REC-SVG-20010904/DTD/svg10.dtd">
<svg version="1.0" xmlns="http://www.w3.org/2000/svg"
 width="301.000000pt" height="340.000000pt" viewBox="0 0 301.000000 340.000000"
 preserveAspectRatio="xMidYMid meet">

<g transform="translate(0.000000,340.000000) scale(0.100000,-0.100000)"
fill="#000000" stroke="none">
<path d="M170 3382 c-20 -10 -44 -34 -57 -57 -19 -35 -65 -176 -93 -285 -15
-54 -11 -268 4 -335 8 -33 22 -109 31 -170 9 -60 20 -128 25 -150 5 -22 10
-78 10 -125 0 -47 7 -116 16 -155 27 -125 28 -137 1 -221 -43 -136 -61 -280
-53 -439 7 -161 26 -250 93 -430 90 -241 158 -362 274 -488 79 -87 106 -105
350 -234 271 -143 382 -195 530 -245 104 -34 137 -41 204 -42 124 0 279 57
615 227 300 152 381 201 452 274 58 60 152 191 188 263 39 77 145 362 163 440
51 211 47 410 -14 635 -31 114 -33 145 -15 217 9 35 18 107 22 159 6 107 36
329 64 469 30 154 31 166 20 257 -10 80 -22 127 -66 278 -43 143 -92 186 -192
166 -147 -29 -242 -107 -496 -409 -193 -230 -256 -294 -307 -310 -58 -19 -373
-30 -610 -22 -311 10 -284 -4 -533 290 -256 303 -366 404 -483 440 -80 24 -98
25 -143 2z m686 -1760 c8 -4 11 -38 10 -92 -1 -98 24 -183 53 -178 32 6 56 77
55 161 0 50 3 77 10 77 33 0 188 -106 207 -142 14 -26 -27 -95 -80 -137 -64
-51 -118 -71 -193 -71 -170 0 -290 111 -304 282 -6 73 1 87 47 98 44 10 181
12 195 2z m1517 -7 c14 -6 17 -20 17 -84 0 -86 -18 -135 -70 -195 -57 -64
-111 -89 -206 -94 -72 -4 -89 -1 -137 21 -100 45 -181 141 -158 185 21 40 178
148 202 140 7 -2 12 -35 13 -83 2 -90 26 -155 56 -155 28 0 50 79 50 180 0 48
3 90 8 94 8 10 199 2 225 -9z"/>
</g>
</svg>
