<?xml version="1.0" standalone="no"?>
<!DOCTYPE svg PUBLIC "-//W3C//DTD SVG 20010904//EN"
 "http://www.w3.org/TR/2001/REC-SVG-20010904/DTD/svg10.dtd">
<svg version="1.0" xmlns="http://www.w3.org/2000/svg"
 width="225.000000pt" height="225.000000pt" viewBox="0 0 225.000000 225.000000"
 preserveAspectRatio="xMidYMid meet">

<g transform="translate(0.000000,225.000000) scale(0.100000,-0.100000)"
fill="#000000" stroke="none">
<path d="M710 1842 c-309 -151 -408 -204 -417 -222 -18 -36 -18 -925 0 -958
14 -28 792 -442 829 -442 30 0 807 404 831 432 16 19 17 57 17 489 l0 468 -22
24 c-21 22 -800 407 -823 407 -6 0 -192 -89 -415 -198z m719 -104 c160 -78
291 -144 291 -148 0 -3 -39 -25 -88 -49 l-87 -43 -270 132 c-149 73 -286 139
-305 147 l-35 15 85 44 c47 23 93 43 102 43 9 1 147 -63 307 -141z m-511 -137
c97 -49 228 -116 291 -149 l114 -60 -91 -46 c-50 -25 -97 -46 -104 -46 -16 0
-598 282 -598 290 0 7 181 99 198 99 7 1 92 -39 190 -88z m132 -819 l0 -374
-127 67 c-71 37 -210 110 -310 163 l-183 96 0 369 0 368 310 -158 310 -158 0
-373z m778 321 l-3 -367 -313 -164 c-173 -90 -315 -162 -316 -160 -1 2 0 173
2 381 l4 378 99 49 c54 28 102 50 105 50 4 0 4 -83 0 -185 -3 -102 -2 -185 2
-185 5 0 57 23 116 50 l106 50 0 59 c0 32 3 119 6 193 l7 135 81 41 c45 22 87
41 94 41 10 1 12 -76 10 -366z"/>
</g>
</svg>
