<?xml version="1.0" standalone="no"?>
<!DOCTYPE svg PUBLIC "-//W3C//DTD SVG 20010904//EN"
 "http://www.w3.org/TR/2001/REC-SVG-20010904/DTD/svg10.dtd">
<svg version="1.0" xmlns="http://www.w3.org/2000/svg"
 width="1024.000000pt" height="1024.000000pt" viewBox="0 0 1024.000000 1024.000000"
 preserveAspectRatio="xMidYMid meet">

<g transform="translate(0.000000,1024.000000) scale(0.100000,-0.100000)"
fill="#000000" stroke="none">
<path d="M0 5120 l0 -5120 5120 0 5120 0 0 5120 0 5120 -5120 0 -5120 0 0
-5120z m5437 3704 c108 -22 194 -56 300 -120 165 -98 285 -231 368 -407 72
-151 84 -217 96 -501 5 -136 7 -251 4 -255 -4 -3 -439 -4 -968 -3 l-962 3 0
232 c1 202 4 245 23 336 50 228 228 462 455 599 69 42 211 96 303 116 94 20
286 20 381 0z m1066 -1542 c203 -82 291 -302 191 -478 -31 -55 -107 -122 -180
-159 l-59 -30 -1135 -2 c-710 -2 -1163 1 -1209 7 -143 20 -278 118 -318 233
-56 165 14 331 171 403 120 55 67 53 1321 51 l1160 -2 58 -23z m-377 -891 l82
-1 -4 -147 c-5 -181 -21 -495 -35 -663 -12 -153 -74 -726 -94 -870 -8 -58 -24
-184 -35 -280 -12 -96 -36 -283 -55 -415 -18 -132 -36 -267 -40 -300 -11 -102
-34 -255 -55 -370 -12 -60 -27 -146 -35 -190 -111 -623 -263 -1220 -436 -1709
-92 -264 -104 -291 -135 -333 -28 -37 -62 -43 -86 -15 -34 38 -98 184 -143
327 -26 83 -67 211 -91 285 -79 248 -103 334 -159 570 -92 389 -114 490 -136
605 -11 61 -29 144 -39 185 -39 154 -136 791 -195 1275 -39 325 -83 694 -90
770 -3 28 -16 142 -30 255 -13 113 -26 246 -30 295 -7 108 -24 718 -20 725 2
4 1435 4 1861 1z"/>
<path d="M5054 8651 c-97 -23 -137 -39 -218 -88 -179 -109 -324 -290 -370
-464 -25 -92 -45 -243 -46 -341 l0 -48 815 0 815 0 0 48 c0 91 -20 259 -41
337 -54 207 -204 387 -403 485 -132 65 -195 81 -346 86 -99 3 -142 0 -206 -15z
m91 -141 c11 -5 15 -9 9 -9 -25 -2 -215 -154 -277 -221 -96 -106 -133 -198
-163 -407 l-5 -33 -70 0 -71 0 7 68 c10 96 70 272 117 342 110 166 351 304
453 260z"/>
<path d="M5100 7130 l-1035 -5 -37 -23 c-64 -40 -88 -76 -88 -135 0 -92 62
-156 170 -177 39 -8 392 -9 1185 -5 1285 8 1187 1 1245 91 48 76 41 134 -24
202 -43 46 -104 60 -256 59 -69 -1 -591 -4 -1160 -7z"/>
<path d="M4434 6054 c10 -265 25 -526 37 -639 5 -55 19 -190 30 -300 11 -110
28 -267 39 -350 11 -82 33 -267 50 -410 17 -143 39 -316 50 -385 10 -69 29
-190 40 -270 43 -291 154 -865 234 -1210 70 -305 172 -670 287 -1026 44 -136
45 -127 53 297 7 400 7 4435 0 4454 -3 7 -106 8 -317 4 -171 -4 -313 -7 -315
-8 -2 0 0 -5 3 -11 3 -5 1 -10 -4 -10 -6 0 -11 7 -11 15 0 11 -13 15 -52 15
-29 0 -71 3 -92 7 l-39 6 7 -179z m296 -99 c5 -99 14 -407 20 -685 6 -278 15
-545 20 -595 6 -49 14 -280 20 -513 5 -233 13 -428 16 -435 5 -8 4 -9 -3 -2
-6 6 -18 60 -27 120 -9 61 -23 153 -31 205 -8 52 -21 183 -29 290 -8 107 -31
330 -50 495 -41 354 -56 613 -59 1013 -2 322 -4 312 61 312 23 0 32 5 33 18 0
9 5 4 10 -13 5 -16 13 -111 19 -210z"/>
<path d="M5935 6223 l-70 -4 1 -554 c0 -437 3 -557 14 -569 7 -9 28 -16 47
-16 29 0 36 5 49 35 7 19 14 62 14 96 0 33 5 125 10 203 6 77 17 283 25 456 9
173 18 325 21 337 5 19 2 23 -17 21 -13 -1 -55 -4 -94 -5z"/>
</g>
</svg>
